<svg width="20" height="20" viewBox="0 0 20 20" fill="none" xmlns="http://www.w3.org/2000/svg">
<path fill-rule="evenodd" clip-rule="evenodd" d="M18.7322 0.732239C17.7559 -0.24408 16.173 -0.24408 15.1967 0.732239L9.5 6.42896L4.26779 1.19672C3.29147 0.220398 1.70856 0.220398 0.732239 1.19672C-0.24408 2.17303 -0.24408 3.75592 0.732239 4.73224L5.96448 9.96448L1.05457 14.8744C0.0782776 15.8507 0.0782776 17.4336 1.05457 18.4099C2.03088 19.3862 3.6138 19.3862 4.59012 18.4099L9.5 13.5L14.8744 18.8744C15.8507 19.8507 17.4336 19.8507 18.4099 18.8744C19.3862 17.8981 19.3862 16.3152 18.4099 15.3388L13.0356 9.96448L18.7322 4.26779C19.7086 3.29147 19.7086 1.70856 18.7322 0.732239Z" fill="#011627"/>
</svg>
