<svg width="33" height="38" viewBox="0 0 33 38" fill="none" xmlns="http://www.w3.org/2000/svg">
<path fill-rule="evenodd" clip-rule="evenodd" d="M27.0225 12C27.0225 15.866 23.8885 19 20.0225 19C16.1565 19 13.0225 15.866 13.0225 12C13.0225 8.13401 16.1565 5 20.0225 5C23.8885 5 27.0225 8.13401 27.0225 12ZM32.0225 12C32.0225 18.6274 26.6499 24 20.0225 24C18.2582 24 16.5828 23.6193 15.0741 22.9355L4.36196 36.908C3.54479 37.9739 2.01828 38.1756 0.952387 37.3584C-0.113502 36.5412 -0.315133 35.0147 0.502033 33.9488L11.1418 20.0706C9.20374 17.9394 8.02246 15.1076 8.02246 12C8.02246 5.37258 13.395 0 20.0225 0C26.6499 0 32.0225 5.37258 32.0225 12Z" fill="#011627"/>
</svg>
