<svg width="36" height="40" viewBox="0 0 36 40" fill="none" xmlns="http://www.w3.org/2000/svg">
<path fill-rule="evenodd" clip-rule="evenodd" d="M31.0262 1.00657C31.8899 -0.119962 33.5033 -0.333062 34.6298 0.530598C35.7563 1.39426 35.9694 3.00763 35.1058 4.13416L35.0761 4.17284L31.0128 1.02407L31.0262 1.00657ZM29.7913 2.61739L33.8546 5.76617L29.3585 11.6308C30.1672 12.6532 30.65 13.9452 30.65 15.35V34C30.65 37.3137 27.9637 40 24.65 40H6C2.68629 40 0 37.3137 0 34V15.35C0 12.0363 2.68629 9.35002 6 9.35002H24.6297L29.7913 2.61739ZM21.5631 13.35H6C4.89543 13.35 4 14.2454 4 15.35V34C4 35.1046 4.89543 36 6 36H24.65C25.7545 36 26.65 35.1046 26.65 34V15.35C26.65 15.2906 26.6474 15.2318 26.6423 15.1737L17.0267 27.7161L17.0266 27.7161L12.0405 29.9956L12.9471 24.5886L12.9471 24.5885L21.5631 13.35Z" fill="#011627"/>
</svg>
